<svg width="120" height="41" viewBox="0 0 120 41" fill="none" xmlns="http://www.w3.org/2000/svg">
<rect x="0.5" y="1.1377" width="119" height="39" rx="5.5" stroke="#564CAF"/>
<path d="M24.7045 21.4007C24.7166 20.4808 24.9669 19.5788 25.4321 18.7787C25.8972 17.9786 26.5621 17.3064 27.3648 16.8246C26.8548 16.1135 26.1821 15.5284 25.4 15.1155C24.6178 14.7027 23.7479 14.4737 22.8592 14.4465C20.9635 14.2523 19.1258 15.554 18.1598 15.554C17.1751 15.554 15.6878 14.4658 14.0862 14.498C13.0502 14.5307 12.0406 14.8248 11.1557 15.3516C10.2708 15.8785 9.54075 16.6202 9.03674 17.5044C6.85352 21.1948 8.48201 26.6185 10.5734 29.6015C11.6197 31.0623 12.8426 32.6939 14.4428 32.636C16.0086 32.5726 16.5934 31.6612 18.4835 31.6612C20.3561 31.6612 20.9048 32.636 22.5374 32.5993C24.2176 32.5726 25.2762 31.1321 26.2859 29.6575C27.0377 28.6167 27.6162 27.4664 28 26.2492C27.0238 25.8461 26.1908 25.1714 25.6048 24.3092C25.0187 23.447 24.7056 22.4354 24.7045 21.4007Z" fill="#564CAF"/>
<path d="M21.6208 12.4848C22.5369 11.4111 22.9883 10.0311 22.879 8.6377C21.4793 8.78121 20.1865 9.43429 19.258 10.4668C18.804 10.9712 18.4563 11.558 18.2348 12.1937C18.0132 12.8294 17.9222 13.5015 17.9669 14.1715C18.6669 14.1785 19.3595 14.0304 19.9924 13.7382C20.6253 13.4461 21.1821 13.0175 21.6208 12.4848Z" fill="#564CAF"/>
<path d="M36.791 9.13916H38.8608C40.6494 9.13916 41.5195 10.2026 41.5195 12.1318C41.5195 14.061 40.6406 15.1377 38.8608 15.1377H36.791V9.13916ZM37.7886 9.97852V14.2983H38.751C39.9375 14.2983 40.4956 13.582 40.4956 12.145C40.4956 10.6992 39.9331 9.97852 38.751 9.97852H37.7886ZM44.6748 10.4136C45.8877 10.4136 46.7358 11.2002 46.7358 12.5054V13.1074C46.7358 14.4565 45.8877 15.2168 44.6748 15.2168C43.4443 15.2168 42.605 14.4653 42.605 13.1118V12.5098C42.605 11.2397 43.4575 10.4136 44.6748 10.4136ZM44.6792 11.2002C43.9849 11.2002 43.5894 11.7803 43.5894 12.5581V13.0767C43.5894 13.8545 43.9585 14.4302 44.6792 14.4302C45.3911 14.4302 45.7559 13.8589 45.7559 13.0767V12.5581C45.7559 11.7803 45.3735 11.2002 44.6792 11.2002ZM53.8989 10.4927L52.6772 15.1377H51.6841L50.7129 11.71H50.6865L49.7329 15.1377H48.7354L47.4609 10.4927H48.5112L49.2583 14.0347H49.3022L50.2383 10.4927H51.1567L52.1191 14.0347H52.1631L52.9233 10.4927H53.8989ZM54.8657 15.1377V10.4927H55.8237V11.3276H55.8721C55.9907 10.9629 56.3291 10.4224 57.2695 10.4224C58.2056 10.4224 58.834 10.9409 58.834 12V15.1377H57.8584V12.2856C57.8584 11.5781 57.4893 11.2529 56.9399 11.2529C56.2192 11.2529 55.8413 11.8066 55.8413 12.5581V15.1377H54.8657ZM60.3105 15.1377V8.82275H61.2861V15.1377H60.3105ZM64.6348 10.4136C65.8477 10.4136 66.6958 11.2002 66.6958 12.5054V13.1074C66.6958 14.4565 65.8477 15.2168 64.6348 15.2168C63.4043 15.2168 62.5649 14.4653 62.5649 13.1118V12.5098C62.5649 11.2397 63.4175 10.4136 64.6348 10.4136ZM64.6392 11.2002C63.9448 11.2002 63.5493 11.7803 63.5493 12.5581V13.0767C63.5493 13.8545 63.9185 14.4302 64.6392 14.4302C65.3511 14.4302 65.7158 13.8589 65.7158 13.0767V12.5581C65.7158 11.7803 65.3335 11.2002 64.6392 11.2002ZM69.2227 15.208C68.3218 15.208 67.7021 14.6543 67.7021 13.7886C67.7021 12.9668 68.2734 12.4131 69.3457 12.4131H70.519V11.978C70.519 11.4463 70.1807 11.1958 69.6445 11.1958C69.1172 11.1958 68.8799 11.4155 68.8052 11.7231H67.8779C67.9351 10.9453 68.5195 10.4224 69.6753 10.4224C70.6685 10.4224 71.4902 10.8354 71.4902 11.9912V15.1377H70.563V14.5356H70.519C70.3125 14.8916 69.9082 15.208 69.2227 15.208ZM69.5259 14.4521C70.0796 14.4521 70.519 14.0742 70.519 13.5688V13.0679H69.4995C68.9326 13.0679 68.6821 13.3535 68.6821 13.7402C68.6821 14.2236 69.0864 14.4521 69.5259 14.4521ZM74.4961 10.4312C75.1509 10.4312 75.6519 10.7212 75.832 11.1914H75.8804V8.82275H76.856V15.1377H75.9067V14.395H75.8584C75.7178 14.8652 75.1597 15.1992 74.4829 15.1992C73.415 15.1992 72.7207 14.439 72.7207 13.2129V12.4175C72.7207 11.1914 73.4282 10.4312 74.4961 10.4312ZM74.7686 11.231C74.1182 11.231 73.7139 11.7144 73.7139 12.5581V13.0679C73.7139 13.916 74.1226 14.3994 74.7905 14.3994C75.4497 14.3994 75.8804 13.9204 75.8804 13.1294V12.4263C75.8804 11.71 75.4102 11.231 74.7686 11.231ZM82.2129 10.4136C83.4258 10.4136 84.2739 11.2002 84.2739 12.5054V13.1074C84.2739 14.4565 83.4258 15.2168 82.2129 15.2168C80.9824 15.2168 80.1431 14.4653 80.1431 13.1118V12.5098C80.1431 11.2397 80.9956 10.4136 82.2129 10.4136ZM82.2173 11.2002C81.5229 11.2002 81.1274 11.7803 81.1274 12.5581V13.0767C81.1274 13.8545 81.4966 14.4302 82.2173 14.4302C82.9292 14.4302 83.2939 13.8589 83.2939 13.0767V12.5581C83.2939 11.7803 82.9116 11.2002 82.2173 11.2002ZM85.5308 15.1377V10.4927H86.4888V11.3276H86.5371C86.6558 10.9629 86.9941 10.4224 87.9346 10.4224C88.8706 10.4224 89.499 10.9409 89.499 12V15.1377H88.5234V12.2856C88.5234 11.5781 88.1543 11.2529 87.605 11.2529C86.8843 11.2529 86.5063 11.8066 86.5063 12.5581V15.1377H85.5308ZM93.2739 10.5234V9.36328H94.2275V10.5234H95.269V11.2881H94.2275V13.7534C94.2275 14.2588 94.4165 14.3994 94.9395 14.3994C95.0713 14.3994 95.2471 14.3906 95.3218 14.3818V15.1289C95.2427 15.1421 94.9175 15.1685 94.6978 15.1685C93.5684 15.1685 93.2607 14.7642 93.2607 13.8325V11.2881H92.5532V10.5234H93.2739ZM96.4995 15.1377V8.82275H97.4707V11.3276H97.519C97.6201 10.998 97.998 10.4224 98.9297 10.4224C99.835 10.4224 100.481 10.9453 100.481 12.0044V15.1377H99.5098V12.29C99.5098 11.5825 99.1187 11.2529 98.5649 11.2529C97.8662 11.2529 97.4707 11.8022 97.4707 12.5581V15.1377H96.4995ZM103.755 15.2168C102.489 15.2168 101.703 14.439 101.703 13.1294V12.501C101.703 11.1826 102.564 10.4136 103.698 10.4136C104.862 10.4136 105.684 11.2222 105.684 12.501V13.0459H102.669V13.2744C102.669 13.9424 103.065 14.4346 103.75 14.4346C104.26 14.4346 104.612 14.1929 104.678 13.9028H105.631C105.574 14.439 105.007 15.2168 103.755 15.2168ZM102.669 12.4087H104.73V12.3472C104.73 11.6484 104.322 11.1826 103.702 11.1826C103.083 11.1826 102.669 11.6484 102.669 12.3472V12.4087Z" fill="#564CAF"/>
<path d="M38.2061 31.1377H36.1758L40.3066 19.1406H42.5391L46.6611 31.1377H44.5518L43.4883 27.8154H39.2783L38.2061 31.1377ZM41.4316 21.2148H41.3525L39.7266 26.2861H43.04L41.4316 21.2148ZM52.2644 31.2695C51.0603 31.2695 50.1462 30.6982 49.654 29.8457H49.5837V34.2227H47.6325V21.8477H49.531V23.21H49.6013C50.1111 22.3223 51.0603 21.7246 52.3083 21.7246C54.3913 21.7246 55.8767 23.2979 55.8767 26.0752V26.9014C55.8767 29.6611 54.4089 31.2695 52.2644 31.2695ZM51.8161 29.6611C53.0554 29.6611 53.8991 28.668 53.8991 26.7959V26.1455C53.8991 24.3438 53.1081 23.3154 51.781 23.3154C50.4187 23.3154 49.5661 24.4229 49.5661 26.1367V26.7959C49.5661 28.5537 50.4275 29.6611 51.8161 29.6611ZM62.183 31.2695C60.9789 31.2695 60.0649 30.6982 59.5727 29.8457H59.5024V34.2227H57.5512V21.8477H59.4496V23.21H59.52C60.0297 22.3223 60.9789 21.7246 62.227 21.7246C64.31 21.7246 65.7954 23.2979 65.7954 26.0752V26.9014C65.7954 29.6611 64.3276 31.2695 62.183 31.2695ZM61.7348 29.6611C62.9741 29.6611 63.8178 28.668 63.8178 26.7959V26.1455C63.8178 24.3438 63.0268 23.3154 61.6996 23.3154C60.3373 23.3154 59.4848 24.4229 59.4848 26.1367V26.7959C59.4848 28.5537 60.3461 29.6611 61.7348 29.6611ZM69.8387 27.8066H71.7899C71.8778 28.8438 72.7919 29.7314 74.4882 29.7314C76.0438 29.7314 76.9667 29.002 76.9667 27.8682C76.9667 26.9541 76.3514 26.4619 75.0682 26.1543L73.0995 25.6621C71.5526 25.3018 70.1639 24.3789 70.1639 22.4277C70.1639 20.1338 72.1679 18.877 74.497 18.877C76.8261 18.877 78.7684 20.1338 78.8124 22.375H76.8964C76.8085 21.3555 76.0262 20.5117 74.4706 20.5117C73.0995 20.5117 72.1679 21.1621 72.1679 22.2783C72.1679 23.0605 72.7128 23.623 73.829 23.8779L75.7889 24.3613C77.5907 24.8008 78.9618 25.6533 78.9618 27.6924C78.9618 30.0479 77.0546 31.375 74.3387 31.375C70.9989 31.375 69.8827 29.4238 69.8387 27.8066ZM81.3395 21.8477V19.5889H83.2555V21.8477H85.066V23.4121H83.2555V28.3691C83.2555 29.3799 83.6334 29.6611 84.6793 29.6611C84.8463 29.6611 85.0045 29.6611 85.1188 29.6436V31.1377C84.9605 31.1641 84.5914 31.1992 84.1959 31.1992C81.9371 31.1992 81.3131 30.3906 81.3131 28.5273V23.4121H80.0299V21.8477H81.3395ZM90.3353 21.6895C93.0071 21.6895 94.4573 23.5703 94.4573 26.1016V26.8486C94.4573 29.4678 93.0159 31.2959 90.3353 31.2959C87.6546 31.2959 86.1956 29.4678 86.1956 26.8486V26.1016C86.1956 23.5791 87.6634 21.6895 90.3353 21.6895ZM90.3353 23.2539C88.8851 23.2539 88.1644 24.4404 88.1644 26.1279V26.8398C88.1644 28.501 88.8763 29.7227 90.3353 29.7227C91.7943 29.7227 92.4974 28.5098 92.4974 26.8398V26.1279C92.4974 24.4316 91.7855 23.2539 90.3353 23.2539ZM96.1055 31.1377V21.8477H98.0567V23.0693H98.127C98.3643 22.4893 99.0586 21.7158 100.351 21.7158C100.606 21.7158 100.825 21.7334 101.01 21.7686V23.4912C100.843 23.4473 100.5 23.4209 100.175 23.4209C98.6104 23.4209 98.083 24.3877 98.083 25.6357V31.1377H96.1055ZM105.743 31.2959C103.256 31.2959 101.674 29.6523 101.674 26.9014V25.9609C101.674 23.3682 103.22 21.6895 105.664 21.6895C108.142 21.6895 109.636 23.4297 109.636 26.0488V26.9365H103.598V27.1562C103.598 28.7207 104.442 29.7578 105.769 29.7578C106.762 29.7578 107.439 29.2656 107.677 28.4658H109.531C109.25 29.9688 108.037 31.2959 105.743 31.2959ZM103.598 25.5742H107.729V25.5566C107.729 24.2383 106.912 23.2012 105.673 23.2012C104.416 23.2012 103.598 24.2383 103.598 25.5566V25.5742Z" fill="#564CAF"/>
</svg>
