<svg width="23" height="23" viewBox="0 0 23 23" fill="none" xmlns="http://www.w3.org/2000/svg">
<path d="M11.3074 5.88965C8.2019 5.88965 5.69702 8.39453 5.69702 11.5C5.69702 14.6055 8.2019 17.1103 11.3074 17.1103C14.4128 17.1103 16.9177 14.6055 16.9177 11.5C16.9177 8.39453 14.4128 5.88965 11.3074 5.88965ZM11.3074 15.1475C9.30054 15.1475 7.65991 13.5117 7.65991 11.5C7.65991 9.48828 9.29565 7.85254 11.3074 7.85254C13.3191 7.85254 14.9548 9.48828 14.9548 11.5C14.9548 13.5117 13.3142 15.1475 11.3074 15.1475ZM18.4558 5.66016C18.4558 6.3877 17.8699 6.96875 17.1472 6.96875C16.4197 6.96875 15.8386 6.38281 15.8386 5.66016C15.8386 4.9375 16.4246 4.35156 17.1472 4.35156C17.8699 4.35156 18.4558 4.9375 18.4558 5.66016ZM22.1716 6.98828C22.0886 5.23535 21.6882 3.68262 20.4041 2.40332C19.1248 1.12402 17.572 0.723633 15.8191 0.635742C14.0125 0.533203 8.59741 0.533203 6.79077 0.635742C5.04272 0.71875 3.48999 1.11914 2.20581 2.39844C0.921631 3.67773 0.526123 5.23047 0.438232 6.9834C0.335693 8.79004 0.335693 14.2051 0.438232 16.0117C0.52124 17.7646 0.921631 19.3174 2.20581 20.5967C3.48999 21.876 5.03784 22.2764 6.79077 22.3643C8.59741 22.4668 14.0125 22.4668 15.8191 22.3643C17.572 22.2812 19.1248 21.8809 20.4041 20.5967C21.6833 19.3174 22.0837 17.7646 22.1716 16.0117C22.2742 14.2051 22.2742 8.79492 22.1716 6.98828ZM19.8376 17.9502C19.4568 18.9072 18.7195 19.6445 17.7576 20.0303C16.3171 20.6016 12.8992 20.4697 11.3074 20.4697C9.71558 20.4697 6.29272 20.5967 4.85718 20.0303C3.90015 19.6494 3.16284 18.9121 2.7771 17.9502C2.20581 16.5098 2.33765 13.0918 2.33765 11.5C2.33765 9.9082 2.21069 6.48535 2.7771 5.0498C3.15796 4.09277 3.89526 3.35547 4.85718 2.96973C6.29761 2.39844 9.71558 2.53027 11.3074 2.53027C12.8992 2.53027 16.322 2.40332 17.7576 2.96973C18.7146 3.35059 19.4519 4.08789 19.8376 5.0498C20.4089 6.49023 20.2771 9.9082 20.2771 11.5C20.2771 13.0918 20.4089 16.5146 19.8376 17.9502Z" fill="white"/>
</svg>
