<svg width="120" height="41" viewBox="0 0 120 41" fill="none" xmlns="http://www.w3.org/2000/svg">
<rect x="0.5" y="1.1377" width="119" height="39" rx="5.5" stroke="#564CAF"/>
<path d="M22.6109 25.7489L17.8029 20.3966L8.31241 30.697C8.62004 31.7084 9.54202 32.4377 10.6254 32.4377C11.0734 32.4377 11.4932 32.3138 11.8535 32.0968L11.8536 32.0968L11.8846 32.0781L11.8846 32.0781L11.8861 32.0773L22.6109 25.7489Z" fill="#564CAF" stroke="#CAC6E7" stroke-width="0.4"/>
<path d="M27.5355 18.4784L27.5258 18.473L27.5167 18.4665L27.5146 18.465L22.928 15.7464L17.8719 20.3474L22.9553 25.544L27.516 22.8532L27.5159 22.8531L27.5208 22.8505C28.2816 22.4295 28.8 21.6083 28.8 20.66C28.8 19.7166 28.2892 18.9 27.5355 18.4784Z" fill="#564CAF" stroke="#CAC6E7" stroke-width="0.4"/>
<path d="M17.8551 20.3728L8.21652 11.0326C8.20561 11.1273 8.2 11.2236 8.2 11.3215V29.954C8.2 30.0474 8.20512 30.1395 8.21514 30.2299L17.8551 20.3728Z" fill="#564CAF" stroke="#CAC6E7" stroke-width="0.4"/>
<path d="M17.8766 20.3517L22.5834 15.5393L11.88 9.19333L11.8799 9.19335L11.8774 9.19176C11.5107 8.9668 11.0832 8.83778 10.626 8.83778C9.54526 8.83778 8.62333 9.56535 8.3134 10.574L17.8766 20.3517Z" fill="#564CAF" stroke="#CAC6E7" stroke-width="0.4"/>
<path d="M43.61 12.3477C43.61 13.3477 43.3133 14.1444 42.72 14.7377C42.0533 15.4444 41.1767 15.7977 40.09 15.7977C39.05 15.7977 38.17 15.4377 37.45 14.7177C36.73 13.9977 36.37 13.111 36.37 12.0577C36.37 11.0044 36.73 10.1177 37.45 9.3977C38.17 8.67769 39.05 8.31769 40.09 8.31769C40.6167 8.31769 41.1133 8.41103 41.58 8.59769C42.0467 8.78436 42.43 9.04769 42.73 9.3877L42.07 10.0477C41.85 9.78103 41.5633 9.57436 41.21 9.42769C40.8633 9.27436 40.49 9.19769 40.09 9.19769C39.31 9.19769 38.65 9.46769 38.11 10.0077C37.5767 10.5544 37.31 11.2377 37.31 12.0577C37.31 12.8777 37.5767 13.561 38.11 14.1077C38.65 14.6477 39.31 14.9177 40.09 14.9177C40.8033 14.9177 41.3967 14.7177 41.87 14.3177C42.3433 13.9177 42.6167 13.3677 42.69 12.6677H40.09V11.8077H43.56C43.5933 11.9944 43.61 12.1744 43.61 12.3477ZM48.9078 8.4777V9.3577H45.6478V11.6277H48.5878V12.4877H45.6478V14.7577H48.9078V15.6377H44.7278V8.4777H48.9078ZM52.5877 9.3577V15.6377H51.6677V9.3577H49.6677V8.4777H54.5877V9.3577H52.5877ZM58.6654 15.6377H57.7454V8.4777H58.6654V15.6377ZM62.5487 9.3577V15.6377H61.6287V9.3577H59.6287V8.4777H64.5487V9.3577H62.5487ZM74.521 12.0577C74.521 13.1177 74.1677 14.0044 73.461 14.7177C72.7477 15.4377 71.8743 15.7977 70.841 15.7977C69.801 15.7977 68.9277 15.4377 68.221 14.7177C67.5143 14.0044 67.161 13.1177 67.161 12.0577C67.161 10.9977 67.5143 10.111 68.221 9.3977C68.9277 8.67769 69.801 8.31769 70.841 8.31769C71.881 8.31769 72.7543 8.68103 73.461 9.4077C74.1677 10.121 74.521 11.0044 74.521 12.0577ZM68.101 12.0577C68.101 12.8844 68.361 13.5677 68.881 14.1077C69.4077 14.6477 70.061 14.9177 70.841 14.9177C71.621 14.9177 72.271 14.6477 72.791 14.1077C73.3177 13.5744 73.581 12.891 73.581 12.0577C73.581 11.2244 73.3177 10.541 72.791 10.0077C72.271 9.46769 71.621 9.19769 70.841 9.19769C70.061 9.19769 69.4077 9.46769 68.881 10.0077C68.361 10.5477 68.101 11.231 68.101 12.0577ZM76.5267 15.6377H75.6067V8.4777H76.7267L80.2067 14.0477H80.2467L80.2067 12.6677V8.4777H81.1267V15.6377H80.1667L76.5267 9.79769H76.4867L76.5267 11.1777V15.6377Z" fill="#564CAF"/>
<path d="M93.5181 32.0473H95.1469V21.0358H93.5181V32.0473ZM108.189 25.0023L106.322 29.7765H106.266L104.328 25.0023H102.573L105.479 31.6747L103.823 35.3867H105.521L110 25.0023H108.189ZM98.9519 30.7965C98.4176 30.7965 97.6739 30.5279 97.6739 29.8611C97.6739 29.0119 98.6001 28.686 99.4005 28.686C100.116 28.686 100.454 28.8419 100.889 29.0542C100.762 30.0742 99.892 30.7965 98.9519 30.7965ZM99.1483 24.7618C97.969 24.7618 96.7469 25.2859 96.2424 26.4478L97.6879 27.0565C97.9969 26.4478 98.5721 26.2487 99.1762 26.2487C100.019 26.2487 100.875 26.7587 100.889 27.666V27.7787C100.594 27.6087 99.9627 27.3542 99.1902 27.3542C97.632 27.3542 96.0451 28.2183 96.0451 29.8329C96.0451 31.3066 97.323 32.2561 98.7546 32.2561C99.8501 32.2561 100.454 31.7602 100.833 31.1788H100.889V32.0289H102.461V27.8069C102.461 25.8523 101.015 24.7618 99.1483 24.7618M89.0821 26.343H86.7655V22.5685H89.0821C90.2998 22.5685 90.9911 23.5859 90.9911 24.4553C90.9911 25.3088 90.2998 26.343 89.0821 26.343ZM89.0402 21.0358H85.1375V32.0473H86.7655V27.8756H89.0402C90.8453 27.8756 92.6199 26.5561 92.6199 24.4553C92.6199 22.3545 90.8453 21.0358 89.0402 21.0358M67.7583 30.7983C66.6332 30.7983 65.6913 29.8479 65.6913 28.5424C65.6913 27.2229 66.6332 26.2575 67.7583 26.2575C68.8695 26.2575 69.7406 27.2229 69.7406 28.5424C69.7406 29.8479 68.8695 30.7983 67.7583 30.7983ZM69.6289 25.6189H69.5722C69.2064 25.1794 68.5038 24.7821 67.6178 24.7821C65.7611 24.7821 64.0599 26.4275 64.0599 28.5424C64.0599 30.6424 65.7611 32.2746 67.6178 32.2746C68.5038 32.2746 69.2064 31.8773 69.5722 31.4228H69.6289V31.9628C69.6289 33.3959 68.8695 34.1623 67.6457 34.1623C66.6471 34.1623 66.0282 33.4382 65.7751 32.8278L64.3549 33.4241C64.7626 34.4177 65.8458 35.6377 67.6457 35.6377C69.5582 35.6377 71.1757 34.5023 71.1757 31.7355V25.0085H69.6289V25.6189ZM72.3008 32.0473H73.9322V21.035H72.3008V32.0473ZM76.3362 28.4147C76.2943 26.9675 77.4474 26.2293 78.2766 26.2293C78.9243 26.2293 79.4725 26.5552 79.6549 27.0239L76.3362 28.4147ZM81.3989 27.1657C81.0899 26.3289 80.1472 24.7821 78.2208 24.7821C76.3083 24.7821 74.7196 26.2998 74.7196 28.5284C74.7196 30.6283 76.2943 32.2746 78.4032 32.2746C80.1053 32.2746 81.0899 31.2246 81.4976 30.6142L80.2319 29.7624C79.8103 30.3869 79.2333 30.7983 78.4032 30.7983C77.5739 30.7983 76.983 30.4151 76.6033 29.6638L81.5674 27.5911L81.3989 27.1657ZM41.8501 25.9316V27.5207H45.6184C45.5058 28.4147 45.2107 29.0674 44.7612 29.5211C44.2121 30.0751 43.3541 30.6856 41.8501 30.6856C39.5291 30.6856 37.7152 28.7979 37.7152 26.4566C37.7152 24.1144 39.5291 22.2276 41.8501 22.2276C43.1018 22.2276 44.0157 22.7244 44.6905 23.363L45.8017 22.2417C44.8589 21.3336 43.6081 20.6377 41.8501 20.6377C38.6719 20.6377 36 23.2494 36 26.4566C36 29.6638 38.6719 32.2746 41.8501 32.2746C43.5653 32.2746 44.8589 31.7065 45.8715 30.6424C46.9129 29.5924 47.2358 28.117 47.2358 26.9243C47.2358 26.5552 47.2079 26.2152 47.1512 25.9316H41.8501ZM51.5208 30.7983C50.3957 30.7983 49.425 29.862 49.425 28.5284C49.425 27.1798 50.3957 26.2575 51.5208 26.2575C52.6451 26.2575 53.6158 27.1798 53.6158 28.5284C53.6158 29.862 52.6451 30.7983 51.5208 30.7983ZM51.5208 24.7821C49.4669 24.7821 47.7936 26.3571 47.7936 28.5284C47.7936 30.6856 49.4669 32.2746 51.5208 32.2746C53.5739 32.2746 55.2472 30.6856 55.2472 28.5284C55.2472 26.3571 53.5739 24.7821 51.5208 24.7821ZM59.65 30.7983C58.5249 30.7983 57.5542 29.862 57.5542 28.5284C57.5542 27.1798 58.5249 26.2575 59.65 26.2575C60.7752 26.2575 61.745 27.1798 61.745 28.5284C61.745 29.862 60.7752 30.7983 59.65 30.7983ZM59.65 24.7821C57.597 24.7821 55.9237 26.3571 55.9237 28.5284C55.9237 30.6856 57.597 32.2746 59.65 32.2746C61.7031 32.2746 63.3764 30.6856 63.3764 28.5284C63.3764 26.3571 61.7031 24.7821 59.65 24.7821Z" fill="#564CAF"/>
</svg>
