<svg width="29" height="19" viewBox="0 0 29 19" fill="none" xmlns="http://www.w3.org/2000/svg">
<path d="M28.0531 2.97286C27.7311 1.80267 26.7823 0.881076 25.5776 0.568318C23.394 0 14.6382 0 14.6382 0C14.6382 0 5.88238 0 3.69877 0.568318C2.49409 0.881125 1.54529 1.80267 1.22327 2.97286C0.638184 5.09388 0.638184 9.5192 0.638184 9.5192C0.638184 9.5192 0.638184 13.9445 1.22327 16.0655C1.54529 17.2357 2.49409 18.1189 3.69877 18.4317C5.88238 19 14.6382 19 14.6382 19C14.6382 19 23.394 19 25.5776 18.4317C26.7823 18.1189 27.7311 17.2357 28.0531 16.0655C28.6382 13.9445 28.6382 9.5192 28.6382 9.5192C28.6382 9.5192 28.6382 5.09388 28.0531 2.97286ZM11.7745 13.5371V5.50134L19.0927 9.5193L11.7745 13.5371Z" fill="white"/>
</svg>
